<?xml version="1.0" encoding="utf-8"?>
<!-- Generator: Adobe Illustrator 15.1.0, SVG Export Plug-In . SVG Version: 6.00 Build 0)  -->
<!DOCTYPE svg PUBLIC "-//W3C//DTD SVG 1.1//EN" "http://www.w3.org/Graphics/SVG/1.1/DTD/svg11.dtd">
<svg version="1.1" id="_x31_0" xmlns="http://www.w3.org/2000/svg" xmlns:xlink="http://www.w3.org/1999/xlink" x="0px" y="0px"
	 width="595.279px" height="841.891px" viewBox="0 0 595.279 841.891" enable-background="new 0 0 595.279 841.891"
	 xml:space="preserve">
<g>
	<g>
		<g id="g3" transform="translate(-18.822 2.708864)">
			<path id="path5" fill="#0E9A48" d="M40.029,186.147v-6.956c0.25-0.096,0.493-0.209,0.727-0.348
				c3.316-1.955,3.665-7.51,0.778-12.405c-2.887-4.896-7.915-7.28-11.231-5.325c-3.316,1.956-3.665,7.51-0.778,12.405
				c0.465,0.79,0.988,1.513,1.549,2.164v5.167l-7.148-4.09v-25.619l-2.505-1.654c-2.282,4.159-3.58,8.934-3.58,14.012
				c0,15.778,12.52,28.623,28.171,29.142l0.003-3.006L40.029,186.147z"/>
			<path id="path7" fill="#CB2026" d="M31.728,145.438l4.369,2.589c-0.086,0.718-0.089,1.508-0.086,1.779
				c0.04,3.85,5.253,6.776,10.936,6.717c5.684-0.059,9.731-3.502,9.702-6.889c-0.032-3.85-3.734-6.863-9.415-7.033
				c-1.923-0.057-3.777,0.327-4.622,0.488l-3.186-2.038l7.578-4.324l22.339,12.985l2.562-1.406
				c-2.465-4.053-5.956-7.56-10.356-10.094c-13.674-7.873-31.053-3.432-39.312,9.874l2.542,1.605L31.728,145.438L31.728,145.438z"/>
			<path id="path9" fill="#35469D" d="M70.098,159.552l-4.751,2.483c-0.172-0.029-1.226-1.016-1.464-1.148
				c-3.363-1.874-8.314,0.604-11.08,5.569c-2.766,4.964-2.53,10.641,0.833,12.515c3.363,1.874,8.371-0.374,11.137-5.339
				c0.446-0.801,1.042-2.661,1.32-3.473l4.047-2.34l-0.024,8.883l-22.279,13.012l0.011,2.932c4.742-0.132,9.518-1.425,13.9-3.991
				c13.615-7.973,18.373-25.267,10.912-39.035l-2.562,1.407V159.552L70.098,159.552z"/>
		</g>
		<path id="path11" fill="none" stroke="#010101" d="M37.023,194.257"/>
	</g>
	<path fill="#FFFFFF" d="M103.981,228.146h-0.016c-0.179-0.033-0.375-0.081-0.57-0.146c-0.033,0-0.048,0-0.081-0.032
		c-0.131-0.032-0.261-0.082-0.407-0.147c-0.131-0.033-0.261-0.097-0.391-0.162c-1.645-0.783-3.616-2.459-5.766-4.804
		c-0.325-0.343-0.635-0.701-0.96-1.076c-0.326-0.375-0.651-0.749-0.977-1.156c-0.667-0.797-1.335-1.645-2.003-2.541
		c-0.342-0.456-0.684-0.912-1.026-1.385c-0.683-0.944-1.367-1.92-2.052-2.963c-0.342-0.505-0.7-1.043-1.026-1.58
		c-1.042-1.612-2.068-3.306-3.077-5.064c-0.342-0.586-0.685-1.189-1.01-1.792c-2.687-4.821-5.212-10.113-7.361-15.553
		c-0.505-1.287-0.994-2.573-1.433-3.876c-0.278-0.766-0.537-1.514-0.782-2.279c-1.988-6.06-2.964-11.189-2.819-14.755v-0.098
		c0-1.222-0.96-2.232-2.198-2.232H57.534h-22.85c-1.221,0-2.214,0.978-2.214,2.199v0.081c0.131,2.736-0.407,6.318-1.564,10.651
		c-0.716,2.688-1.661,5.57-2.817,8.583c-0.913,2.41-1.889,4.771-2.915,7.069c-2.638,5.878-5.603,11.367-8.6,16.123
		c-0.326,0.505-0.635,1.009-0.961,1.499c-0.309,0.505-0.635,0.977-0.96,1.45c-0.31,0.488-0.636,0.945-0.961,1.4
		c-0.31,0.456-0.619,0.896-0.944,1.335c-0.311,0.424-0.62,0.847-0.945,1.271c-0.276,0.375-0.554,0.732-0.83,1.09
		c-0.342,0.44-0.684,0.863-1.026,1.271c-0.31,0.375-0.604,0.733-0.896,1.075c-1.124,1.303-2.198,2.426-3.208,3.355
		c-0.244,0.228-0.472,0.44-0.701,0.635c-0.586,0.506-1.139,0.944-1.677,1.303c-0.244,0.179-0.488,0.325-0.733,0.456
		c-0.717,0.44-1.384,0.701-1.987,0.799c-0.18,0.032-0.505,0.586-0.505,0.586v4.951l0.635,0.635h102.959l0.635-0.635v-5
		C104.47,228.684,104.144,228.179,103.981,228.146z"/>
	<path fill="#007ADF" d="M100.102,226.062h-0.015c-0.165-0.03-0.346-0.075-0.527-0.135c-0.03,0-0.044,0-0.075-0.03
		c-0.121-0.03-0.241-0.076-0.377-0.136c-0.121-0.03-0.241-0.09-0.361-0.15c-1.521-0.724-3.344-2.274-5.333-4.443
		c-0.301-0.317-0.587-0.648-0.889-0.995c-0.301-0.346-0.603-0.693-0.903-1.069c-0.617-0.738-1.235-1.521-1.853-2.35
		c-0.316-0.421-0.633-0.844-0.949-1.281c-0.631-0.873-1.264-1.776-1.898-2.741c-0.316-0.467-0.647-0.964-0.949-1.462
		c-0.964-1.49-1.913-3.057-2.846-4.684c-0.316-0.542-0.633-1.1-0.934-1.657c-2.485-4.458-4.82-9.354-6.808-14.384
		c-0.467-1.19-0.919-2.379-1.325-3.584c-0.257-0.708-0.497-1.4-0.723-2.108c-1.838-5.604-2.742-10.348-2.607-13.646v-0.09
		c0-1.13-0.888-2.064-2.033-2.064H57.145H36.012c-1.129,0-2.048,0.904-2.048,2.034v0.075c0.121,2.531-0.376,5.844-1.446,9.851
		c-0.663,2.486-1.536,5.152-2.605,7.938c-0.844,2.229-1.748,4.413-2.696,6.538c-2.44,5.437-5.182,10.512-7.954,14.911
		c-0.301,0.467-0.587,0.934-0.889,1.386c-0.286,0.467-0.587,0.904-0.888,1.341c-0.287,0.452-0.588,0.874-0.89,1.294
		c-0.286,0.422-0.572,0.829-0.873,1.235c-0.287,0.392-0.573,0.783-0.874,1.176c-0.255,0.346-0.512,0.677-0.768,1.008
		c-0.316,0.407-0.633,0.798-0.949,1.175c-0.286,0.346-0.558,0.678-0.828,0.995c-1.04,1.205-2.033,2.244-2.968,3.103
		c-0.226,0.21-0.437,0.407-0.648,0.587c-0.542,0.468-1.054,0.873-1.551,1.205c-0.226,0.166-0.452,0.301-0.678,0.422
		c-0.663,0.406-1.28,0.648-1.838,0.738c-0.166,0.03-0.467,0.542-0.467,0.542v4.58l0.588,0.587h95.223l0.587-0.587v-4.625
		C100.554,226.56,100.253,226.093,100.102,226.062z M67.226,192.83l-2.779-5.237l-1.506-2.876c-0.002,0.006-0.006,0.013-0.009,0.018
		l-0.018-0.033c0,0-3.359,6.084-3.238,6.672c0.093,0.453-1.989-3.265-2.946-4.99c-0.18-0.335-0.334-0.63-0.442-0.844l-0.009,0.029
		c-0.008-0.014-0.021-0.038-0.021-0.038l-2.069,6.669l-1.844,5.849l-2.353-12.368l-0.603-3.118c0,0-0.964,2.756-1.988,5.708
		c-1.034,2.979-2.12,6.155-2.323,6.935c-0.023,0.073-0.042,0.128-0.053,0.164c-0.111-0.219-0.668-2.095-1.315-4.328
		c-0.817-2.844-1.773-6.251-2.106-7.441c-0.059-0.232-0.095-0.386-0.095-0.419l-0.011,0.041c-0.01-0.036-0.016-0.058-0.016-0.058
		l-3.043,10.498l-0.265,0.925l-0.243,0.751l-0.275-1.405l-1.235-6.311c0.603-1.762,1.13-3.494,1.567-5.151
		c0.768-2.861,1.28-5.452,1.521-7.756h16.554h9.143c0.332,3.374,1.25,7.365,2.741,11.899c0.287,0.874,0.603,1.808,0.949,2.756
		l-1.044,2.193L67.226,192.83z"/>
</g>
<g>
	<path d="M107.866,174.623v-33.478h22.951v5.664h-16.191v7.924h13.976v5.664h-13.976v14.227H107.866z"/>
	<path d="M141.139,157.77l-5.823-1.05c0.654-2.344,1.781-4.08,3.379-5.207c1.599-1.126,3.974-1.689,7.125-1.689
		c2.862,0,4.994,0.339,6.394,1.016c1.4,0.678,2.386,1.538,2.957,2.581c0.571,1.043,0.856,2.958,0.856,5.744l-0.068,7.49
		c0,2.131,0.103,3.703,0.309,4.716c0.205,1.013,0.59,2.097,1.153,3.254h-6.349c-0.167-0.426-0.373-1.058-0.617-1.895
		c-0.106-0.381-0.183-0.632-0.228-0.754c-1.096,1.066-2.269,1.866-3.517,2.398c-1.249,0.532-2.581,0.799-3.997,0.799
		c-2.497,0-4.464-0.677-5.903-2.033c-1.438-1.354-2.158-3.068-2.158-5.139c0-1.37,0.328-2.591,0.982-3.665
		c0.654-1.074,1.572-1.896,2.751-2.466c1.18-0.571,2.881-1.07,5.104-1.496c2.999-0.563,5.077-1.088,6.234-1.575v-0.64
		c0-1.232-0.305-2.112-0.914-2.637c-0.609-0.525-1.758-0.788-3.448-0.788c-1.142,0-2.033,0.225-2.672,0.674
		C142.052,155.855,141.535,156.643,141.139,157.77z M149.726,162.977c-0.823,0.274-2.124,0.602-3.905,0.981
		c-1.782,0.381-2.946,0.754-3.494,1.119c-0.837,0.594-1.256,1.348-1.256,2.261c0,0.898,0.334,1.674,1.005,2.329
		c0.669,0.655,1.522,0.982,2.558,0.982c1.157,0,2.261-0.38,3.311-1.142c0.777-0.579,1.286-1.286,1.53-2.124
		c0.167-0.548,0.251-1.591,0.251-3.129V162.977z"/>
	<path d="M162.079,174.623v-33.478h6.417v12.058c1.979-2.253,4.324-3.38,7.034-3.38c2.953,0,5.397,1.069,7.331,3.208
		s2.9,5.21,2.9,9.214c0,4.141-0.986,7.331-2.958,9.569c-1.972,2.238-4.365,3.357-7.182,3.357c-1.386,0-2.752-0.347-4.1-1.04
		c-1.347-0.692-2.508-1.716-3.482-3.071v3.562H162.079z M168.451,161.972c0,2.512,0.396,4.369,1.188,5.572
		c1.111,1.706,2.588,2.558,4.43,2.558c1.416,0,2.623-0.604,3.62-1.815c0.997-1.21,1.496-3.117,1.496-5.72
		c0-2.771-0.502-4.769-1.507-5.995c-1.005-1.225-2.292-1.838-3.859-1.838c-1.538,0-2.817,0.598-3.837,1.793
		S168.451,159.536,168.451,161.972z"/>
	<path d="M232.416,174.623h-7.353l-2.923-7.604h-13.382l-2.764,7.604h-7.17l13.039-33.478h7.148L232.416,174.623z M219.97,161.378
		l-4.613-12.423l-4.522,12.423H219.97z"/>
	<path d="M257.102,157.541l-6.326,1.143c-0.213-1.264-0.696-2.215-1.45-2.855c-0.753-0.639-1.732-0.959-2.934-0.959
		c-1.599,0-2.874,0.553-3.826,1.656s-1.427,2.95-1.427,5.538c0,2.877,0.483,4.91,1.451,6.097c0.966,1.188,2.264,1.782,3.893,1.782
		c1.218,0,2.215-0.346,2.992-1.04c0.777-0.692,1.324-1.884,1.645-3.574l6.303,1.074c-0.655,2.893-1.911,5.078-3.768,6.554
		s-4.347,2.215-7.468,2.215c-3.547,0-6.375-1.119-8.483-3.357c-2.109-2.238-3.163-5.336-3.163-9.295
		c0-4.004,1.058-7.121,3.174-9.352c2.116-2.23,4.979-3.345,8.586-3.345c2.954,0,5.302,0.636,7.045,1.907
		C255.089,153.001,256.341,154.938,257.102,157.541z"/>
	<path d="M266.761,157.77l-5.823-1.05c0.654-2.344,1.781-4.08,3.38-5.207c1.599-1.126,3.973-1.689,7.125-1.689
		c2.862,0,4.994,0.339,6.394,1.016c1.4,0.678,2.386,1.538,2.957,2.581c0.571,1.043,0.856,2.958,0.856,5.744l-0.068,7.49
		c0,2.131,0.103,3.703,0.309,4.716c0.205,1.013,0.59,2.097,1.153,3.254h-6.349c-0.167-0.426-0.373-1.058-0.616-1.895
		c-0.106-0.381-0.183-0.632-0.229-0.754c-1.096,1.066-2.269,1.866-3.517,2.398c-1.249,0.532-2.581,0.799-3.997,0.799
		c-2.497,0-4.464-0.677-5.903-2.033c-1.438-1.354-2.158-3.068-2.158-5.139c0-1.37,0.328-2.591,0.982-3.665
		c0.654-1.074,1.571-1.896,2.751-2.466c1.18-0.571,2.881-1.07,5.104-1.496c2.999-0.563,5.077-1.088,6.234-1.575v-0.64
		c0-1.232-0.305-2.112-0.914-2.637c-0.609-0.525-1.758-0.788-3.448-0.788c-1.142,0-2.033,0.225-2.672,0.674
		C267.676,155.855,267.157,156.643,266.761,157.77z M275.348,162.977c-0.822,0.274-2.124,0.602-3.905,0.981
		c-1.782,0.381-2.946,0.754-3.494,1.119c-0.837,0.594-1.256,1.348-1.256,2.261c0,0.898,0.334,1.674,1.005,2.329
		c0.669,0.655,1.522,0.982,2.558,0.982c1.157,0,2.261-0.38,3.311-1.142c0.777-0.579,1.287-1.286,1.53-2.124
		c0.167-0.548,0.251-1.591,0.251-3.129V162.977z"/>
	<path d="M310.219,174.623h-5.96v-3.562c-0.99,1.385-2.158,2.417-3.506,3.095c-1.348,0.677-2.706,1.016-4.076,1.016
		c-2.786,0-5.173-1.123-7.159-3.369c-1.987-2.246-2.98-5.378-2.98-9.397c0-4.11,0.966-7.235,2.9-9.375s4.377-3.208,7.331-3.208
		c2.709,0,5.054,1.126,7.033,3.38v-12.058h6.417V174.623z M293.093,161.972c0,2.588,0.357,4.461,1.073,5.618
		c1.035,1.675,2.481,2.512,4.339,2.512c1.477,0,2.732-0.628,3.768-1.884s1.553-3.132,1.553-5.629c0-2.786-0.502-4.792-1.507-6.017
		c-1.005-1.225-2.292-1.838-3.859-1.838c-1.522,0-2.798,0.605-3.825,1.815C293.606,157.758,293.093,159.566,293.093,161.972z"/>
	<path d="M330.59,166.904l6.396,1.073c-0.823,2.345-2.122,4.13-3.895,5.355c-1.774,1.226-3.993,1.839-6.657,1.839
		c-4.218,0-7.338-1.378-9.363-4.134c-1.599-2.207-2.397-4.993-2.397-8.358c0-4.02,1.051-7.167,3.151-9.443
		c2.102-2.276,4.758-3.414,7.97-3.414c3.608,0,6.455,1.191,8.541,3.574c2.086,2.383,3.083,6.033,2.992,10.95H321.25
		c0.046,1.903,0.563,3.384,1.553,4.441c0.989,1.059,2.223,1.587,3.699,1.587c1.005,0,1.851-0.274,2.535-0.822
		C329.721,169.005,330.239,168.123,330.59,166.904z M330.955,160.419c-0.045-1.857-0.525-3.269-1.438-4.236
		c-0.914-0.967-2.025-1.451-3.334-1.451c-1.401,0-2.558,0.51-3.471,1.53c-0.914,1.02-1.363,2.405-1.348,4.156H330.955z"/>
	<path d="M342.076,150.371h5.915v3.312c2.114-2.573,4.636-3.86,7.56-3.86c1.553,0,2.899,0.319,4.041,0.959s2.079,1.606,2.81,2.901
		c1.065-1.294,2.214-2.261,3.446-2.901c1.234-0.64,2.55-0.959,3.951-0.959c1.781,0,3.29,0.362,4.521,1.085
		c1.234,0.723,2.155,1.785,2.765,3.186c0.439,1.035,0.661,2.71,0.661,5.024v15.506h-6.415v-13.862c0-2.405-0.222-3.958-0.664-4.659
		c-0.593-0.913-1.506-1.37-2.74-1.37c-0.899,0-1.744,0.274-2.536,0.822c-0.789,0.548-1.36,1.352-1.712,2.41
		c-0.35,1.059-0.523,2.729-0.523,5.013v11.646h-6.418v-13.291c0-2.359-0.114-3.882-0.343-4.567c-0.228-0.685-0.582-1.195-1.062-1.53
		c-0.479-0.334-1.13-0.502-1.951-0.502c-0.989,0-1.881,0.267-2.674,0.799c-0.789,0.533-1.357,1.302-1.7,2.307
		c-0.343,1.004-0.514,2.672-0.514,5.001v11.783h-6.417V150.371z"/>
	<path d="M381.104,150.371h6.827l5.802,17.219l5.663-17.219h6.644l-8.563,23.339l-1.529,4.225c-0.563,1.416-1.102,2.497-1.61,3.243
		c-0.509,0.746-1.097,1.351-1.758,1.815c-0.663,0.465-1.477,0.826-2.442,1.085c-0.969,0.259-2.061,0.388-3.278,0.388
		c-1.232,0-2.442-0.129-3.632-0.388l-0.571-5.024c1.006,0.198,1.912,0.297,2.719,0.297c1.492,0,2.596-0.438,3.312-1.313
		c0.716-0.875,1.263-1.99,1.644-3.346L381.104,150.371z"/>
	<path d="M129.241,218.437l6.554,2.078c-1.005,3.654-2.676,6.368-5.013,8.141c-2.337,1.774-5.302,2.661-8.895,2.661
		c-4.445,0-8.099-1.519-10.961-4.556c-2.863-3.038-4.293-7.189-4.293-12.457c0-5.572,1.438-9.9,4.316-12.983
		c2.878-3.083,6.661-4.625,11.35-4.625c4.095,0,7.421,1.21,9.979,3.631c1.522,1.431,2.664,3.486,3.426,6.166l-6.691,1.599
		c-0.396-1.735-1.222-3.105-2.478-4.11c-1.256-1.005-2.783-1.507-4.579-1.507c-2.482,0-4.496,0.89-6.041,2.671
		s-2.317,4.667-2.317,8.655c0,4.232,0.761,7.247,2.284,9.043c1.521,1.796,3.501,2.694,5.937,2.694c1.796,0,3.341-0.571,4.636-1.712
		C127.749,222.684,128.677,220.888,129.241,218.437z"/>
	<path d="M140.065,218.277c0-2.131,0.525-4.194,1.576-6.189c1.05-1.995,2.538-3.517,4.464-4.568c1.926-1.05,4.077-1.575,6.452-1.575
		c3.668,0,6.676,1.191,9.021,3.573c2.344,2.383,3.517,5.394,3.517,9.032c0,3.669-1.184,6.711-3.551,9.123
		c-2.368,2.414-5.348,3.62-8.94,3.62c-2.224,0-4.343-0.502-6.36-1.508c-2.018-1.005-3.552-2.477-4.602-4.419
		C140.591,223.426,140.065,221.063,140.065,218.277z M146.642,218.62c0,2.405,0.571,4.247,1.713,5.526
		c1.142,1.278,2.55,1.918,4.224,1.918c1.675,0,3.08-0.64,4.213-1.918c1.134-1.279,1.701-3.136,1.701-5.572
		c0-2.375-0.567-4.202-1.701-5.481c-1.134-1.278-2.539-1.918-4.213-1.918c-1.674,0-3.083,0.64-4.224,1.918
		C147.213,214.372,146.642,216.214,146.642,218.62z"/>
	<path d="M169.639,206.493h5.915v3.312c2.116-2.573,4.635-3.859,7.559-3.859c1.553,0,2.9,0.319,4.042,0.959
		c1.142,0.64,2.078,1.606,2.809,2.9c1.066-1.294,2.215-2.261,3.449-2.9s2.55-0.959,3.95-0.959c1.782,0,3.289,0.362,4.522,1.085
		s2.154,1.785,2.764,3.186c0.441,1.035,0.662,2.71,0.662,5.023v15.506h-6.417v-13.862c0-2.405-0.221-3.958-0.662-4.659
		c-0.594-0.914-1.507-1.37-2.74-1.37c-0.898,0-1.743,0.274-2.535,0.822c-0.792,0.548-1.363,1.352-1.713,2.41
		c-0.35,1.059-0.525,2.729-0.525,5.013v11.646H184.3v-13.291c0-2.359-0.114-3.882-0.342-4.567s-0.583-1.195-1.062-1.53
		c-0.48-0.335-1.13-0.502-1.952-0.502c-0.99,0-1.881,0.267-2.672,0.799c-0.792,0.533-1.359,1.302-1.702,2.307
		c-0.342,1.004-0.514,2.672-0.514,5.001v11.784h-6.417V206.493z"/>
	<path d="M211.224,206.493h5.915v3.312c2.116-2.573,4.636-3.859,7.559-3.859c1.553,0,2.9,0.319,4.042,0.959
		c1.142,0.64,2.078,1.606,2.809,2.9c1.065-1.294,2.215-2.261,3.448-2.9s2.55-0.959,3.951-0.959c1.782,0,3.289,0.362,4.522,1.085
		c1.233,0.723,2.154,1.785,2.763,3.186c0.441,1.035,0.662,2.71,0.662,5.023v15.506h-6.417v-13.862c0-2.405-0.22-3.958-0.662-4.659
		c-0.594-0.914-1.507-1.37-2.74-1.37c-0.898,0-1.744,0.274-2.535,0.822c-0.792,0.548-1.363,1.352-1.712,2.41
		c-0.351,1.059-0.525,2.729-0.525,5.013v11.646h-6.417v-13.291c0-2.359-0.114-3.882-0.343-4.567
		c-0.228-0.685-0.583-1.195-1.062-1.53s-1.13-0.502-1.952-0.502c-0.99,0-1.881,0.267-2.672,0.799
		c-0.792,0.533-1.359,1.302-1.701,2.307c-0.343,1.004-0.514,2.672-0.514,5.001v11.784h-6.417V206.493z"/>
	<path d="M253.288,203.205v-5.937h6.417v5.937H253.288z M253.288,230.746v-24.252h6.417v24.252H253.288z"/>
	<path d="M277.404,206.493v5.115h-4.384v9.774c0,1.98,0.042,3.133,0.125,3.46c0.083,0.328,0.274,0.598,0.571,0.811
		c0.296,0.213,0.658,0.32,1.084,0.32c0.593,0,1.454-0.206,2.581-0.617l0.548,4.979c-1.492,0.639-3.182,0.959-5.069,0.959
		c-1.157,0-2.2-0.194-3.128-0.583c-0.929-0.388-1.61-0.89-2.044-1.507c-0.434-0.617-0.735-1.45-0.902-2.5
		c-0.137-0.746-0.206-2.253-0.206-4.522v-10.573h-2.946v-5.115h2.946v-4.819l6.44-3.745v8.563H277.404z"/>
	<path d="M295.901,223.027l6.395,1.073c-0.823,2.345-2.121,4.13-3.895,5.355c-1.773,1.226-3.992,1.839-6.656,1.839
		c-4.218,0-7.338-1.378-9.363-4.134c-1.599-2.208-2.398-4.993-2.398-8.358c0-4.02,1.051-7.167,3.152-9.443s4.757-3.414,7.97-3.414
		c3.608,0,6.455,1.191,8.541,3.573c2.085,2.383,3.082,6.033,2.991,10.951h-16.077c0.046,1.903,0.563,3.383,1.553,4.441
		c0.99,1.059,2.223,1.587,3.7,1.587c1.005,0,1.85-0.274,2.535-0.822C295.033,225.128,295.551,224.245,295.901,223.027z
		 M296.266,216.541c-0.046-1.857-0.525-3.269-1.439-4.235c-0.913-0.967-2.024-1.451-3.333-1.451c-1.401,0-2.558,0.51-3.471,1.53
		c-0.914,1.02-1.363,2.405-1.348,4.156H296.266z"/>
	<path d="M321.912,223.027l6.395,1.073c-0.823,2.345-2.121,4.13-3.895,5.355c-1.773,1.226-3.992,1.839-6.656,1.839
		c-4.218,0-7.339-1.378-9.363-4.134c-1.599-2.208-2.397-4.993-2.397-8.358c0-4.02,1.051-7.167,3.151-9.443
		c2.102-2.276,4.758-3.414,7.97-3.414c3.608,0,6.455,1.191,8.541,3.573c2.085,2.383,3.083,6.033,2.991,10.951h-16.076
		c0.046,1.903,0.562,3.383,1.553,4.441c0.989,1.059,2.223,1.587,3.699,1.587c1.005,0,1.85-0.274,2.535-0.822
		C321.044,225.128,321.561,224.245,321.912,223.027z M322.277,216.541c-0.046-1.857-0.525-3.269-1.438-4.235
		c-0.914-0.967-2.025-1.451-3.334-1.451c-1.401,0-2.558,0.51-3.472,1.53c-0.913,1.02-1.362,2.405-1.347,4.156H322.277z"/>
	<path d="M358.997,197.268h6.739v21.192c0,2.771-0.245,4.903-0.733,6.394c-0.653,1.949-1.841,3.513-3.561,4.693
		c-1.722,1.18-3.989,1.77-6.806,1.77c-3.304,0-5.847-0.925-7.628-2.775c-1.782-1.849-2.679-4.563-2.695-8.141l6.373-0.73
		c0.075,1.918,0.356,3.273,0.844,4.065c0.73,1.203,1.842,1.804,3.335,1.804c1.506,0,2.571-0.43,3.197-1.29
		c0.623-0.86,0.935-2.646,0.935-5.356V197.268z"/>
	<path d="M377.679,213.892l-5.826-1.05c0.657-2.344,1.782-4.08,3.381-5.207c1.598-1.126,3.975-1.689,7.126-1.689
		c2.861,0,4.993,0.339,6.395,1.016c1.4,0.678,2.386,1.539,2.956,2.581c0.571,1.043,0.856,2.957,0.856,5.743l-0.069,7.491
		c0,2.131,0.105,3.703,0.31,4.715c0.205,1.013,0.59,2.098,1.153,3.254h-6.349c-0.169-0.426-0.373-1.058-0.616-1.896
		c-0.106-0.38-0.183-0.631-0.228-0.754c-1.097,1.066-2.27,1.866-3.519,2.398c-1.249,0.532-2.581,0.799-3.996,0.799
		c-2.497,0-4.465-0.678-5.904-2.033c-1.438-1.354-2.157-3.068-2.157-5.139c0-1.37,0.328-2.591,0.982-3.665
		c0.654-1.074,1.572-1.896,2.752-2.466s2.881-1.07,5.103-1.496c3-0.563,5.078-1.088,6.234-1.576v-0.64
		c0-1.233-0.305-2.112-0.913-2.637c-0.609-0.525-1.758-0.788-3.447-0.788c-1.142,0-2.033,0.225-2.673,0.674
		C378.593,211.978,378.074,212.766,377.679,213.892z M386.263,219.099c-0.82,0.274-2.122,0.602-3.903,0.981
		c-1.781,0.381-2.947,0.754-3.494,1.119c-0.837,0.594-1.256,1.348-1.256,2.261c0,0.898,0.335,1.674,1.004,2.329
		c0.671,0.655,1.522,0.982,2.557,0.982c1.158,0,2.263-0.38,3.313-1.142c0.775-0.579,1.285-1.287,1.53-2.124
		c0.166-0.548,0.249-1.591,0.249-3.129V219.099z"/>
	<path d="M398.712,206.493h5.982v3.562c0.775-1.218,1.826-2.207,3.151-2.968s2.792-1.142,4.407-1.142
		c2.816,0,5.207,1.104,7.17,3.311c1.965,2.208,2.947,5.283,2.947,9.226c0,4.05-0.99,7.197-2.969,9.442
		c-1.979,2.246-4.377,3.369-7.193,3.369c-1.342,0-2.555-0.267-3.645-0.799c-1.087-0.533-2.233-1.446-3.437-2.741v12.217h-6.415
		V206.493z M405.06,218.208c0,2.726,0.54,4.739,1.619,6.041c1.083,1.301,2.398,1.952,3.951,1.952c1.491,0,2.733-0.597,3.723-1.793
		c0.989-1.195,1.484-3.155,1.484-5.88c0-2.542-0.509-4.43-1.529-5.664c-1.021-1.232-2.283-1.849-3.792-1.849
		c-1.567,0-2.868,0.604-3.905,1.815C405.576,214.041,405.06,215.833,405.06,218.208z"/>
	<path d="M432.258,213.892l-5.825-1.05c0.656-2.344,1.781-4.08,3.38-5.207c1.599-1.126,3.975-1.689,7.127-1.689
		c2.861,0,4.992,0.339,6.394,1.016c1.401,0.678,2.386,1.539,2.957,2.581c0.57,1.043,0.856,2.957,0.856,5.743l-0.069,7.491
		c0,2.131,0.104,3.703,0.31,4.715c0.204,1.013,0.59,2.098,1.153,3.254h-6.349c-0.169-0.426-0.374-1.058-0.616-1.896
		c-0.107-0.38-0.184-0.631-0.229-0.754c-1.097,1.066-2.27,1.866-3.518,2.398c-1.249,0.532-2.581,0.799-3.996,0.799
		c-2.498,0-4.465-0.678-5.904-2.033c-1.439-1.354-2.157-3.068-2.157-5.139c0-1.37,0.328-2.591,0.982-3.665
		c0.654-1.074,1.572-1.896,2.752-2.466s2.881-1.07,5.103-1.496c2.999-0.563,5.078-1.088,6.234-1.576v-0.64
		c0-1.233-0.305-2.112-0.914-2.637c-0.608-0.525-1.758-0.788-3.446-0.788c-1.142,0-2.034,0.225-2.674,0.674
		C433.171,211.978,432.653,212.766,432.258,213.892z M440.843,219.099c-0.82,0.274-2.122,0.602-3.903,0.981
		c-1.782,0.381-2.947,0.754-3.494,1.119c-0.838,0.594-1.257,1.348-1.257,2.261c0,0.898,0.336,1.674,1.004,2.329
		c0.671,0.655,1.522,0.982,2.558,0.982c1.158,0,2.262-0.38,3.313-1.142c0.775-0.579,1.284-1.287,1.529-2.124
		c0.167-0.548,0.25-1.591,0.25-3.129V219.099z"/>
	<path d="M475.533,230.746h-6.418v-12.377c0-2.618-0.138-4.312-0.411-5.081c-0.273-0.769-0.719-1.366-1.337-1.793
		c-0.616-0.426-1.358-0.639-2.227-0.639c-1.11,0-2.107,0.305-2.99,0.914c-0.885,0.609-1.488,1.416-1.817,2.421
		c-0.325,1.004-0.489,2.862-0.489,5.572v10.984h-6.418v-24.252h5.961v3.562c2.117-2.74,4.781-4.11,7.992-4.11
		c1.415,0,2.71,0.255,3.882,0.765c1.173,0.51,2.061,1.162,2.662,1.953c0.6,0.792,1.018,1.69,1.256,2.695
		c0.235,1.005,0.354,2.443,0.354,4.316V230.746z"/>
</g>
</svg>
